HIERARCHY
ROOT Hips
{
    OFFSET 0.000000 0.000000 0.000000
    CHANNELS 6 Xposition Yposition Zposition Zrotation Xrotation Yrotation
    JOINT Spine
    {
        OFFSET -0.000000 7.583482 0.000000
        CHANNELS 3 Zrotation Xrotation Yrotation
        JOINT Spine1
        {
            OFFSET -0.000000 19.647881 0.000000
            CHANNELS 3 Zrotation Xrotation Yrotation
            JOINT Neck
            {
                OFFSET -0.000000 19.567190 1.778835
                CHANNELS 3 Zrotation Xrotation Yrotation
                JOINT Head
                {
                    OFFSET -0.000000 12.947408 -1.849630
                    CHANNELS 3 Zrotation Xrotation Yrotation
                    End Site
                    {
                        OFFSET -0.000000 23.120371 0.000000
                    }
                }
            }
            JOINT LeftShoulder
            {
                OFFSET 3.632882 16.008181 -0.342244
                CHANNELS 3 Zrotation Xrotation Yrotation
                JOINT LeftArm
                {
                    OFFSET 15.804684 0.000000 0.000000
                    CHANNELS 3 Zrotation Xrotation Yrotation
                    JOINT LeftForeArm
                    {
                        OFFSET 25.677923 0.000000 0.000000
                        CHANNELS 3 Zrotation Xrotation Yrotation
                        JOINT LeftHand
                        {
                            OFFSET 26.158810 0.000000 0.000000
                            CHANNELS 3 Zrotation Xrotation Yrotation
                            End Site
                            {
                                OFFSET 13.872223 0.000000 0.000000
                            }
                        }
                    }
                }
            }
            JOINT RightShoulder
            {
                OFFSET -3.700243 16.008181 -0.342244
                CHANNELS 3 Zrotation Xrotation Yrotation
                JOINT RightArm
                {
                    OFFSET -15.804684 0.000000 0.000000
                    CHANNELS 3 Zrotation Xrotation Yrotation
                    JOINT RightForeArm
                    {
                        OFFSET -25.677923 0.000000 0.000000
                        CHANNELS 3 Zrotation Xrotation Yrotation
                        JOINT RightHand
                        {
                            OFFSET -26.158810 0.000000 0.000000
                            CHANNELS 3 Zrotation Xrotation Yrotation
                            End Site
                            {
                                OFFSET -13.872223 0.000000 0.000000
                            }
                        }
                    }
                }
            }
        }
    }
    JOINT LeftUpLeg
    {
        OFFSET 9.248149 0.000000 0.000000
        CHANNELS 3 Zrotation Xrotation Yrotation
        JOINT LeftLeg
        {
            OFFSET -0.000000 -43.254459 0.000000
            CHANNELS 3 Zrotation Xrotation Yrotation
            JOINT LeftFoot
            {
                OFFSET -0.000000 -33.301838 0.000000
                CHANNELS 3 Zrotation Xrotation Yrotation
                JOINT LeftToeBase
                {
                    OFFSET -0.000000 -6.011296 13.872223
                    CHANNELS 3 Zrotation Xrotation Yrotation
                    End Site
                    {
                        OFFSET -0.000000 0.000000 3.699259
                    }
                }
            }
        }
    }
    JOINT RightUpLeg
    {
        OFFSET -9.248149 0.000000 0.000000
        CHANNELS 3 Zrotation Xrotation Yrotation
        JOINT RightLeg
        {
            OFFSET -0.000000 -43.254459 0.000000
            CHANNELS 3 Zrotation Xrotation Yrotation
            JOINT RightFoot
            {
                OFFSET -0.000000 -33.301838 0.000000
                CHANNELS 3 Zrotation Xrotation Yrotation
                JOINT RightToeBase
                {
                    OFFSET -0.000000 -6.011296 13.872223
                    CHANNELS 3 Zrotation Xrotation Yrotation
                    End Site
                    {
                        OFFSET -0.000000 0.000000 3.699259
                    }
                }
            }
        }
    }
}
MOTION
Frames:    5
Frame Time:    0.010000
13.420703    84.795532    -62.499428    -1.716627    1.359070    14.536989    0.717994    -9.817342    -5.877600    -5.159397    1.237447    -5.883406    -19.796841    20.529066    -7.501582    17.633366    1.551534    -6.349234    6.229217    18.100370    0.783279    18.996042    83.051834    -49.720531    -29.027323    9.486256    -127.778412    37.552544    -36.063862    51.809608    -2.835129    14.550361    -5.917779    54.795963    -7.209002    28.868847    13.684380    -53.690304    86.800346    -43.707123    -55.011532    -26.355251    5.550544    -6.829539    -5.695714    -11.307100    12.714058    6.114268    5.654567    -11.411161    2.816472    0.000000    0.000000    0.000000    -4.214646    -10.818536    -7.166998    10.142924    61.712685    28.031542    1.502120    -8.418325    -13.307361    0.000000    0.000000    0.000000    
13.574659    84.842796    -62.265480    -1.918113    1.332443    13.286825    0.697133    -9.739863    -6.171265    -5.015315    1.246672    -6.175956    -19.058132    20.325567    -7.570919    16.843998    1.711836    -6.479245    6.353663    18.115252    0.545750    18.682896    83.077431    -49.639397    -29.351717    10.630963    -127.472351    38.904110    -35.358768    50.374413    -2.639513    13.586909    -5.907791    54.019615    -8.013739    28.265060    13.009390    -54.006214    85.648338    -45.228783    -54.361248    -27.112375    5.752565    -6.313130    -4.919062    -11.206799    12.661207    5.163356    5.723633    -11.821856    4.024492    0.000000    0.000000    0.000000    -4.504628    -11.944884    -7.747665    10.804440    61.528801    27.124460    0.861395    -8.541349    -14.370113    0.000000    0.000000    0.000000    
13.797558    84.891747    -62.051384    -2.083267    1.304556    11.993554    0.852976    -9.530031    -6.455840    -5.057459    1.062979    -6.479896    -18.448708    20.186676    -7.495786    16.296906    1.787091    -6.432378    6.458045    18.319695    0.528388    20.561399    83.106049    -51.702782    -29.878033    10.694150    -127.108833    38.674427    -36.018047    50.728329    -2.502542    13.068545    -5.562203    53.035774    -8.536393    27.524813    14.613311    -54.460678    86.311333    -45.626923    -55.430000    -28.207094    5.778306    -5.754583    -4.200950    -10.934916    12.584282    4.453978    5.720520    -12.236786    4.977995    0.000000    0.000000    0.000000    -4.619955    -13.150155    -8.951605    9.068057    61.260818    29.272022    0.107783    -8.380701    -15.945618    0.000000    0.000000    0.000000    
13.914543    84.959618    -61.872227    -2.183799    1.495506    10.915418    0.423210    -9.455257    -6.904691    -4.417464    0.890960    -6.905229    -17.811771    19.827206    -7.220699    15.365391    1.918881    -6.194520    6.319038    18.492599    0.392749    20.937153    83.251686    -52.355171    -30.304028    10.289838    -126.763557    38.014652    -36.758751    51.840969    -2.563486    12.534970    -5.259242    51.390186    -8.769246    26.792282    15.209785    -55.160580    85.638329    -46.612755    -55.914188    -29.212475    5.758685    -5.529568    -3.389559    -10.671987    12.491423    4.208881    5.581513    -12.323069    5.390889    0.000000    0.000000    0.000000    -5.093348    -14.559122    -9.411245    8.879962    60.886631    28.609547    0.279062    -8.491041    -14.793516    0.000000    0.000000    0.000000    
14.115451    84.976822    -61.555714    -2.385963    1.348798    9.537904    0.842545    -9.382795    -7.137985    -4.964913    1.010960    -7.163199    -17.053434    19.739370    -6.838445    15.337308    1.701897    -5.728319    6.828760    18.668999    0.468779    24.774073    83.554756    -56.443726    -29.458982    9.595156    -127.076477    37.094982    -36.464611    50.976601    -2.077890    11.966871    -4.641195    50.688267    -8.624685    24.873655    16.911493    -55.250248    87.681915    -47.834774    -56.655174    -30.581764    5.863119    -4.607759    -2.367373    -10.371516    11.856751    4.829462    5.382199    -12.683918    5.027700    0.000000    0.000000    0.000000    -5.314939    -15.326534    -9.661669    8.740174    59.935265    30.445349    -0.994657    -8.624089    -16.533552    0.000000    0.000000    0.000000    
